<?xml version="1.0" encoding="utf-8"?>
<!-- Generator: Adobe Illustrator 26.5.0, SVG Export Plug-In . SVG Version: 6.00 Build 0)  -->
<svg version="1.1" id="Layer_1" xmlns="http://www.w3.org/2000/svg" xmlns:xlink="http://www.w3.org/1999/xlink" x="0px" y="0px"
	 viewBox="0 0 1242.9 400.7" style="enable-background:new 0 0 1242.9 400.7;" xml:space="preserve">
<style type="text/css">
	.st0{fill:#FFFFFF;}
	.st1{fill:#830518;}
</style>
<g>
	<g>
		<path class="st0" d="M580,247.1V130h25v47h50.8v-47h25v117.1h-25v-49H605v49H580L580,247.1z"/>
		<path class="st0" d="M697.2,247.8l44.9-117.9h28.8l45.5,117.9h-28.7l-9.6-25h-45.7l-8.2,25H697.2L697.2,247.8z M772.2,202.9
			L759,164.8c-0.4-1.1-0.9-3.1-1.4-5.8s-1.2-6.1-1.9-10.1c-0.7,3.8-1.4,7.2-2,10.3c-0.6,3.1-1.1,5.1-1.4,6.1l-12.7,37.6H772.2
			L772.2,202.9z"/>
		<path class="st0" d="M906.3,130.1l17.4,63.5c1.1,4,2.2,8.4,3.1,13c0.9,4.6,1.9,9.8,2.7,15.6c0.1-4.9,0.5-9.6,1.1-14.4
			c0.6-4.7,1.5-9.5,2.8-14.3l15.2-63.5h24.7l-30.6,117.1h-24.1l-21-74.7c-1-3.4-1.8-6.9-2.4-10.3c-0.6-3.4-1-7.1-1.2-10.8
			c-0.3,4-0.7,7.7-1.2,11.2c-0.6,3.5-1.3,6.8-2.2,9.9l-21.1,74.7h-24.1L814.8,130h25l15.4,65c0.9,3.7,1.5,7.8,2.1,12.1
			c0.5,4.4,0.9,9.1,1.2,14.2c1-6.8,2.9-15.4,5.6-25.8l0.4-1.7l17.2-63.9L906.3,130.1L906.3,130.1z"/>
		<path class="st0" d="M989.4,247.5V129.8h28.4v53.3l44.3-53.3h32.9l-47.6,53.6l49.3,64.1h-34.2l-44.7-61.6v61.6L989.4,247.5
			L989.4,247.5z"/>
		<path class="st0" d="M1101,230.4l14-15.8c1.8,4.3,4.6,7.8,8.5,10.2c3.9,2.5,8.3,3.7,13.2,3.7c5.9,0,10.6-1.4,14-4.2
			c3.4-2.8,5.1-6.5,5.1-11.2c0-5.6-5.7-11.1-17.1-16.6c-3.7-1.8-6.6-3.2-8.8-4.3c-10.3-5.4-17.4-10.6-21.4-15.7s-6-11.2-6-18.3
			c0-9.7,3.8-17.7,11.5-23.9c7.7-6.2,17.7-9.4,29.9-9.4c7.1,0,13.3,1.2,18.5,3.7c5.2,2.5,9.7,6.4,13.7,11.7l-14.9,14.2
			c-1.8-3.4-4.1-6-7-7.7s-6.4-2.5-10.6-2.5c-5,0-9,1.2-12.1,3.7c-3,2.5-4.6,5.7-4.6,9.7c0,6.2,6.1,11.9,18.2,17
			c2.4,1,4.3,1.8,5.5,2.4c10,4.5,17.3,9.7,22.2,15.4c4.8,5.7,7.2,12.3,7.2,19.6c0,11-3.8,19.8-11.3,26.4s-17.6,9.9-30.3,9.9
			c-9,0-16.7-1.5-23.2-4.7S1104.2,236.3,1101,230.4L1101,230.4z"/>
	</g>
	<path class="st0" d="M62.8,230.4l14.3-15.7c1.8,4.3,4.7,7.7,8.7,10.2s8.5,3.7,13.4,3.7c6,0,10.8-1.4,14.3-4.1
		c3.5-2.8,5.2-6.5,5.2-11.2c0-5.5-5.8-11-17.5-16.5c-3.8-1.8-6.8-3.2-8.9-4.3c-10.5-5.4-17.8-10.6-21.8-15.7s-6.1-11.1-6.1-18.1
		c0-9.6,3.9-17.5,11.8-23.7c7.8-6.2,18-9.3,30.5-9.3c7.3,0,13.5,1.2,18.8,3.7c5.3,2.5,9.9,6.3,14,11.6l-15.2,14.1
		c-1.8-3.4-4.2-5.9-7.2-7.6c-3-1.7-6.6-2.5-10.8-2.5c-5.1,0-9.2,1.2-12.3,3.7s-4.7,5.7-4.7,9.6c0,6.2,6.2,11.8,18.5,16.9
		c2.5,1,4.3,1.8,5.7,2.4c10.2,4.5,17.7,9.6,22.6,15.3c4.9,5.7,7.3,12.2,7.3,19.5c0,11-3.8,19.7-11.5,26.2s-18,9.8-31,9.8
		c-9.2,0-17-1.5-23.6-4.6C70.9,240.6,66,236.2,62.8,230.4L62.8,230.4z"/>
	<path class="st0" d="M209.4,152.8v95.6h-25.7v-95.6h-29.4v-21.2h84.4v21.2L209.4,152.8L209.4,152.8z"/>
	<path class="st0" d="M255.5,248.4V131.6h70.7v21.1h-45v24h45v21.2h-45v29.3h45v21.2H255.5z"/>
	<path class="st0" d="M351.3,248.4V131.6H422v21.1h-45v24h45v21.2h-45v29.3h45v21.2H351.3z"/>
	<path class="st0" d="M447.1,248.4V131.6h25.7v95.6h41v21.2H447.1L447.1,248.4z"/>
</g>
<g>
	<rect x="0" y="276.2" class="st1" width="1242.9" height="18.4"/>
	<rect x="0" y="84.5" class="st1" width="1242.9" height="18.4"/>
</g>
<g>
	<g id="Layer_1-2_00000114057411321010678260000015380498765288971411_">
		<path class="st0" d="M637,289.3c-1-2.2-2-4.3-2.9-6.5c-1.7-4.2-4.5-7.5-7.7-10.4c-1.1-1-2.4-1.9-3.9-2.3c-2.5-0.7-5-0.8-7.5-0.6
			c-1.7,0.2-3.1,0.8-4.3,2c-0.9,0.9-1.8,1.7-2.7,2.6c-1.4,1.4-2.9,2.4-4.8,3c-1,0.3-1.9,0.8-2.7,1.4c-3.4,2.7-3.1,6.8-1.6,9.3
			c0.2,0.4,0.7,0.7,1.1,0.8c0.2,0,0.6-0.6,0.7-1c0.3-0.7,0.7-1.1,1.5-1.1c0.7,0,1.4,0,2.1,0.2c2.3,0.4,4.4,1.2,5.8,3.1
			c0,0.1,0,0.2,0,0.3c-1.8,1.7-3.6,3.4-5.4,5.1c-0.2,0.2-0.6,0.3-0.8,0.3c-7.5,0-15.1,0-22.6-0.1c-7.2-0.1-14.5-0.2-21.6-1.6
			c-5.6-1.1-11.1-2.3-16.5-4.3c-6.9-2.6-12.9-6.4-17.9-12c-3.9-4.4-8-8.6-12.1-12.9c-0.3-0.3-0.7-0.6-1.1-0.9
			c-0.5,0.7-0.4,1.5-0.4,2.2c0.2,2.7,0.6,5.3,1.4,7.9c0.7,2.2,1.5,4.3,2.2,6.4c0.1,0.3,0.1,0.7,0.2,1c-0.1,0-0.1,0.1-0.2,0.1
			c-0.6-0.3-1.2-0.6-1.8-1c-2.9-2-5.5-4.3-7.9-6.8c-0.7-0.8-1.5-1.5-2.3-2.2c-0.8-0.7-1.2-0.6-1.5,0.5c-0.3,1.3-0.4,2.7-0.3,4
			c0.1,2.1,1.2,4,2.7,5.3c1.3,1.1,2.5,2.2,3.8,3.4c0.3,0.3,0.6,0.7,0.9,1.1c-0.3,0.1-0.6,0-0.9-0.1c-1-0.5-2.1-1-3.1-1.5
			c-2.1-1-4.1-2.1-6.2-3.1c-1-0.5-1.4-0.4-1.3,1c0.1,1.1,0.5,2.2,0.9,3.2c1,2.3,2.5,4.3,4.3,6.1c0.3,0.4,0.6,0.8,1,1.2
			c-0.1,0.1-0.1,0.1-0.2,0.2c-0.3-0.1-0.7-0.2-1.1-0.3c-1.3-0.6-2.6-1.2-3.9-1.8c-1.8-0.8-3.5-1.7-5.5-1.9c-0.7-0.1-1.3,0-1.6,0.8
			v0.9c1.8,3.4,4.7,5.6,7.8,7.6c0.7,0.4,1.4,0.8,2.1,1.2c0.3,0.2,0.5,0.3,0.8,0.5c-0.1,0.1-0.2,0.3-0.2,0.4c-0.5,0-1,0-1.5-0.1
			c-1.5-0.2-2.9-0.6-4.4-0.8c-0.9-0.1-1.8-0.1-2.6,0.1c-0.7,0.1-0.9,0.6-0.5,1.2c0.6,0.9,1.3,1.8,2.1,2.5c1,0.8,2.1,1.5,3.1,2.2
			c0.4,0.3,0.9,0.6,1.3,0.9c0,0.1,0,0.1,0,0.2c-1.2,0.3-2.4,0.6-3.7,0.9c2.1,3.2,5.4,4.3,8.7,5.7c0,0.1,0,0.1,0,0.2
			c-0.6,0.1-1.2,0.2-1.7,0.4c-0.5,0.2-1,0.5-1.4,0.8c0.3,0.4,0.6,0.9,1,1.2c1.9,1.5,4,2.7,6.4,3.1c0.3,0.1,0.6,0.2,0.9,0.4
			c-0.2,0-0.5,0-0.7,0.1c-0.4,0.1-0.8,0.1-1.2,0.2c-0.7,0.2-1,0.8-0.5,1.4c0.4,0.6,0.9,1.2,1.5,1.6c1.1,0.7,2.3,1.3,3.5,1.9
			c0.2,0.1,0.5,0.2,0.8,0.4c-0.8,0.6-1.6,1.2-2.4,1.9c4.1,2.9,8.8,3.7,13.6,4.4c-0.4,0.2-0.8,0.4-1.2,0.7c-0.7,0.4-1.4,0.7-2.1,1.1
			c-0.2,0.1-0.3,0.4-0.5,0.6c0.2,0.2,0.5,0.5,0.7,0.5c1.6,0.2,3.2,0.5,4.8,0.6c4.4,0.2,8.9,0.3,13.3,0.5c0.1,0,0.3,0,0.6,0
			c-2.4,1.6-5,2.7-7,5c0.5,0.2,0.8,0.3,1,0.3c1.9-0.1,3.8-0.1,5.6-0.4c3-0.6,6-1.5,8.9-2.3c0.5-0.2,1.1-0.3,1.7-0.3
			c-0.2,0.2-0.3,0.5-0.6,0.7c-0.9,0.9-1.8,1.9-2.8,2.8c-0.2,0.2-0.3,0.5-0.4,0.8c0.3,0.1,0.6,0.4,0.9,0.3c1.6-0.2,3.2-0.2,4.7-0.6
			c6.1-1.4,12.2-2.9,18.3-4.3c4.8-1.1,9.7-2,14.5-3.1c3.2-0.7,6.2-2,9.1-3.5c1.7-0.9,3.5-1.6,5.3-2.4c0.7-0.3,1.4,0.1,1.5,0.8
			c0.2,1.3,0,2.5-0.5,3.7c-1.5,3.4-3,6.8-4.6,10.1c-2.4,5.2-4.9,10.3-7.4,15.5c-0.3,0.6-0.5,1.2-0.7,1.8c0.1,0.1,0.1,0.1,0.2,0.2
			c0.5-0.2,1-0.5,1.4-0.8c2-1.5,4-3.1,6-4.6c1.4-1.1,2.9-2.1,4.3-3.2c0.1,0,0.1-0.1,0.2-0.1c0,0.1,0,0.1-0.1,0.2
			c-1,1.6-1.9,3.2-2.9,4.7c-2.5,3.8-5.1,7.6-7.6,11.4c-0.4,0.6-0.7,1.2-1,1.8c0.1,0.1,0.1,0.1,0.2,0.2c0.5-0.2,1-0.4,1.5-0.7
			c3-2,6-4.1,9.1-6.2c1.2-0.8,2.3-1.6,3.5-2.4c0.4-0.2,0.8-0.4,1.2-0.6c0.3-0.2,0.6-0.1,0.6,0.3c0.2,3.9,2.2,7.1,4.1,10.4
			c0.9,1.6,1.9,3.1,3,4.6c1.2,1.6,1.9,3.3,2.3,5.2c0.6,3.1,1.8,6,3.1,8.8c1.7,3.6,3.5,7.2,5.2,10.7c0.3,0.5,0.6,1,0.9,1.5h0.2
			c0.4-0.7,0.8-1.3,1.1-2c1.8-3.8,3.5-7.7,5.2-11.5c1.1-2.5,2.1-4.9,2.6-7.6c0.3-1.6,1-3,1.9-4.4c1.4-2,2.7-4.1,3.9-6.3
			c1.3-2.4,2.5-4.8,3.1-7.5c0.1-0.7,0.2-1.5,0.3-2.4c0.4,0.2,0.7,0.3,1,0.5c1.1,0.7,2.1,1.5,3.2,2.2c3.6,2.5,7.2,4.9,10.8,7.4
			c0.3,0.2,0.5,0.2,0.8,0.4c0.1-0.1,0.1-0.1,0.2-0.2c-0.2-0.4-0.3-0.8-0.5-1.2c-1-1.5-2-3.1-3-4.6c-2.5-3.7-5-7.3-7.5-10.9
			c-0.2-0.4-0.4-0.7-0.6-1.1c0.1-0.1,0.1-0.1,0.2-0.2c0.5,0.3,1,0.5,1.5,0.9c2.8,2.1,5.6,4.3,8.4,6.4c0.6,0.5,1.3,0.9,1.9,1.3
			c0.1,0,0.1-0.1,0.2-0.1c-0.2-0.5-0.3-1-0.5-1.5c-2.2-4.8-4.5-9.6-6.7-14.5c-1.8-4-3.6-7.9-5.4-11.9c-0.5-1.2-0.7-2.5-0.5-3.8
			c0,0,0,0,0,0l-0.4-3l0.3,2c1.8,0.8,3.5,1.6,5.3,2.4c3,1.4,5.9,2.8,9.1,3.5c4.8,1,9.7,2,14.5,3.1c6.1,1.4,12.2,2.9,18.3,4.3
			c1.5,0.3,3.1,0.4,4.7,0.6c0.3,0,0.6-0.2,0.9-0.3c-0.1-0.3-0.2-0.6-0.4-0.8c-0.9-1-1.8-1.9-2.8-2.8c-0.2-0.2-0.4-0.5-0.6-0.7
			c0.6,0,1.2,0.1,1.7,0.3c3,0.8,5.9,1.6,8.9,2.3c1.8,0.4,3.7,0.3,5.6,0.4c0.3,0,0.5-0.2,1-0.3c-2-2.2-4.6-3.3-7-5c0.3,0,0.5,0,0.6,0
			c4.4-0.2,8.9-0.3,13.3-0.5c1.6-0.1,3.2-0.4,4.8-0.6c0.2,0,0.5-0.3,0.7-0.5c-0.2-0.2-0.3-0.5-0.5-0.6c-0.7-0.4-1.4-0.7-2.1-1.1
			c-0.4-0.2-0.8-0.4-1.2-0.7c4.8-0.7,9.5-1.5,13.6-4.4c-0.8-0.7-1.6-1.3-2.4-1.9c0.3-0.1,0.6-0.2,0.8-0.4c1.2-0.6,2.4-1.2,3.5-1.9
			c0.6-0.4,1.1-1,1.5-1.6c0.4-0.6,0.2-1.2-0.5-1.4c-0.4-0.1-0.8-0.1-1.2-0.2c-0.2,0-0.5,0-0.7-0.1c0.3-0.2,0.6-0.3,0.9-0.4
			c2.4-0.5,4.5-1.6,6.4-3.1c0.4-0.3,0.7-0.8,1-1.2c-0.5-0.3-0.9-0.6-1.4-0.8c-0.6-0.2-1.2-0.3-1.7-0.4c0-0.1,0-0.1,0-0.2
			c3.3-1.3,6.6-2.5,8.7-5.7c-1.3-0.3-2.4-0.6-3.7-0.9c0-0.1,0-0.1,0-0.2c0.5-0.3,0.9-0.6,1.3-0.9c1.1-0.7,2.2-1.4,3.1-2.2
			c0.8-0.7,1.5-1.6,2.1-2.5c0.4-0.5,0.2-1.1-0.5-1.2c-0.9-0.1-1.8-0.2-2.6-0.1c-1.5,0.2-2.9,0.6-4.4,0.8c-0.5,0.1-1,0.1-1.5,0.1
			c-0.1-0.1-0.2-0.3-0.2-0.4c0.3-0.2,0.5-0.3,0.8-0.5c0.7-0.4,1.4-0.8,2.1-1.2c3.2-1.9,6-4.2,7.8-7.6v-0.9c-0.3-0.8-0.9-0.9-1.6-0.8
			c-2,0.2-3.8,1.1-5.5,1.9c-1.3,0.6-2.6,1.2-3.9,1.8c-0.3,0.2-0.7,0.2-1.1,0.3c-0.1-0.1-0.1-0.1-0.2-0.2c0.3-0.4,0.6-0.8,1-1.2
			c1.8-1.8,3.3-3.8,4.3-6.1c0.4-1,0.8-2.1,0.9-3.2c0.2-1.5-0.2-1.5-1.3-1c-2.1,1-4.1,2.1-6.2,3.1c-1,0.5-2.1,1-3.1,1.5
			c-0.2,0.1-0.5,0.2-0.9,0.1c0.3-0.4,0.6-0.8,0.9-1.1c1.3-1.2,2.5-2.3,3.8-3.4c1.6-1.3,2.7-3.2,2.7-5.3c0.1-1.3-0.1-2.7-0.3-4
			c-0.2-1.1-0.6-1.2-1.5-0.5c-0.8,0.7-1.6,1.4-2.3,2.2c-2.4,2.6-5,4.8-7.9,6.8c-0.6,0.4-1.2,0.7-1.8,1c-0.1,0-0.1-0.1-0.2-0.1
			c0.1-0.3,0.1-0.7,0.2-1c0.7-2.1,1.5-4.2,2.2-6.4c0.8-2.6,1.3-5.2,1.4-7.9c0-0.7,0.1-1.5-0.4-2.2c-0.4,0.3-0.8,0.6-1.1,0.9
			c-4,4.4-8.2,8.5-12.1,12.9c-5,5.6-11,9.5-17.9,12c-5.4,2-10.9,3.2-16.5,4.3c-7.1,1.4-14.3,1.5-21.6,1.6
			c-7.5,0.1-15.1,0.1-22.6,0.1c-0.2,0-0.5-0.1-0.7-0.3"/>
	</g>
</g>
<g>
	<path class="st0" d="M307.6,26.5h-13.1v39.8H282V26.5h-13.1V15.9h38.7V26.5z"/>
	<path class="st0" d="M338.3,15.1c2.2,0,4.4,0.2,6.5,0.7c2.1,0.5,4.1,1.2,6,2.2c1.9,1,3.6,2.2,5.2,3.6s2.9,3.1,4.1,5
		c1.1,1.9,2,4,2.7,6.4s0.9,4.9,0.9,7.7c0,2.9-0.3,5.6-1,8c-0.6,2.4-1.5,4.6-2.7,6.6c-1.1,2-2.5,3.7-4.1,5.1s-3.4,2.7-5.3,3.7
		c-1.9,1-4,1.7-6.2,2.2c-2.2,0.5-4.4,0.7-6.8,0.7c-2.2,0-4.4-0.2-6.5-0.7c-2.1-0.5-4.1-1.2-6-2.2c-1.9-1-3.6-2.2-5.2-3.6
		c-1.6-1.4-2.9-3.1-4.1-5c-1.1-1.9-2-4-2.7-6.4c-0.6-2.4-1-4.9-1-7.7c0-2.9,0.3-5.5,1-8s1.6-4.6,2.7-6.6c1.2-2,2.5-3.7,4.1-5.1
		c1.6-1.5,3.4-2.7,5.3-3.7c1.9-1,4-1.7,6.2-2.2C333.8,15.4,336,15.1,338.3,15.1z M337.9,25.9c-1.6,0-3.2,0.3-4.7,1s-2.9,1.6-4.1,2.9
		c-1.2,1.3-2.1,2.8-2.9,4.7s-1.1,4.1-1.1,6.5c0,2.6,0.4,4.9,1.1,6.8c0.7,1.9,1.7,3.5,2.9,4.8c1.2,1.3,2.6,2.2,4.1,2.8
		c1.6,0.6,3.2,0.9,4.9,0.9c1.6,0,3.2-0.3,4.7-0.9c1.5-0.6,2.9-1.6,4.1-2.8c1.2-1.3,2.1-2.8,2.9-4.7c0.7-1.9,1.1-4.1,1.1-6.6
		c0-2.6-0.4-4.9-1.1-6.8c-0.7-1.9-1.7-3.5-2.9-4.8c-1.2-1.3-2.6-2.2-4.1-2.8C341.2,26.2,339.6,25.9,337.9,25.9z"/>
	<path class="st0" d="M438,15.9c-0.8,8.6-2.1,17.1-3.8,25.6c-1.7,8.5-3.8,16.7-6.2,24.7h-16.7L404,33l-7.2,33.3h-16.4
		c-2.4-8-4.5-16.3-6.2-24.7c-1.7-8.5-3-17-3.8-25.6h12.7c0.3,3.2,0.7,6.4,1.1,9.6c0.4,3.2,0.9,6.4,1.5,9.5c0.6,3.2,1.2,6.3,1.8,9.3
		c0.6,3.1,1.3,6.1,2.1,9l8-37.4H411l8.1,37.5c0.7-2.9,1.4-5.9,2.1-9c0.6-3.1,1.2-6.2,1.8-9.4c0.6-3.2,1.1-6.3,1.5-9.6
		c0.4-3.2,0.8-6.4,1.1-9.6H438z"/>
	<path class="st0" d="M493.1,66.3h-15.4l-16.3-27.5c-0.7-1.2-1.3-2.3-1.8-3.4c-0.5-1.1-1-2.2-1.4-3.4c0.1,1.1,0.2,2.3,0.2,3.4
		c0.1,1.1,0.1,2.3,0.1,3.4v27.5h-11.6V15.9h15.4l16.3,27.5c0.7,1.1,1.3,2.3,1.8,3.4c0.5,1.1,1,2.2,1.4,3.3c-0.1-1.1-0.2-2.2-0.2-3.4
		c-0.1-1.1-0.1-2.2-0.1-3.3V15.9h11.6V66.3z"/>
	<path class="st0" d="M506.3,53c1.9,1.2,3.8,2.1,5.8,2.8c2,0.7,4,1,6,1c1,0,1.9-0.1,2.7-0.3c0.8-0.2,1.4-0.5,2-0.8
		c0.5-0.4,0.9-0.8,1.2-1.3c0.3-0.5,0.4-1.1,0.4-1.8c0-0.9-0.3-1.7-0.9-2.4c-0.6-0.7-1.4-1.3-2.4-1.9c-1-0.6-2.1-1.2-3.4-1.7
		c-1.3-0.6-2.6-1.2-3.9-1.8c-1.3-0.6-2.6-1.4-3.9-2.2c-1.3-0.8-2.4-1.8-3.4-2.9c-1-1.1-1.8-2.4-2.4-4c-0.6-1.5-0.9-3.3-0.9-5.3
		c0-2.3,0.4-4.4,1.3-6.3c0.9-1.9,2.1-3.5,3.6-4.8c1.6-1.3,3.4-2.3,5.6-3s4.7-1,7.4-1c2.7,0,5.1,0.3,7.3,0.9c2.2,0.6,4.2,1.5,6.2,2.6
		l-2.8,9.9c-1.7-1-3.4-1.7-5.1-2.3c-1.7-0.6-3.5-0.8-5.3-0.8c-0.8,0-1.6,0.1-2.3,0.3s-1.3,0.4-1.8,0.8c-0.5,0.3-0.9,0.7-1.1,1.2
		c-0.3,0.5-0.4,1-0.4,1.7c0,0.9,0.3,1.6,0.9,2.3c0.6,0.7,1.4,1.3,2.4,1.8s2.1,1.1,3.4,1.7c1.3,0.5,2.6,1.1,3.9,1.8s2.6,1.4,3.9,2.2
		c1.3,0.8,2.4,1.8,3.4,3c1,1.2,1.8,2.5,2.4,4c0.6,1.5,0.9,3.3,0.9,5.4c0,2.4-0.5,4.5-1.4,6.4s-2.2,3.5-3.8,4.9
		c-1.6,1.3-3.6,2.4-5.9,3.1c-2.3,0.7-4.8,1.1-7.5,1.1c-3,0-5.7-0.4-8.1-1.1c-2.4-0.7-4.6-1.7-6.6-3.1L506.3,53z"/>
	<path class="st0" d="M577.1,26.3h-18.4v9.5h17.2v10.4h-17.2V56h18.4v10.4h-30.9V15.9h30.9V26.3z"/>
	<path class="st0" d="M633.4,66.3h-15.4l-16.3-27.5c-0.7-1.2-1.3-2.3-1.8-3.4c-0.5-1.1-1-2.2-1.4-3.4c0.1,1.1,0.2,2.3,0.2,3.4
		c0.1,1.1,0.1,2.3,0.1,3.4v27.5h-11.6V15.9h15.4L619,43.5c0.7,1.1,1.3,2.3,1.8,3.4c0.5,1.1,1,2.2,1.4,3.3c-0.1-1.1-0.2-2.2-0.2-3.4
		c-0.1-1.1-0.1-2.2-0.1-3.3V15.9h11.6V66.3z"/>
	<path class="st0" d="M645,15.9c1.1,0,2.1-0.1,3-0.1c0.9,0,1.9-0.1,2.7-0.1c0.9,0,1.8,0,2.7-0.1c0.9,0,1.9,0,2.9,0
		c5.2,0,9.9,0.6,14,1.7c4.1,1.1,7.5,2.7,10.3,4.9s4.9,4.7,6.4,7.8c1.5,3,2.2,6.5,2.2,10.4c0,4.1-0.8,7.8-2.3,11.1
		c-1.5,3.3-3.7,6-6.5,8.3c-2.8,2.3-6.3,4-10.4,5.2c-4.1,1.2-8.7,1.8-13.8,1.8c-1,0-2,0-2.9,0c-0.9,0-1.8,0-2.7-0.1
		c-0.9,0-1.8-0.1-2.7-0.1c-0.9,0-1.9-0.1-3-0.1V15.9z M657.6,55.8c0.3,0,0.6,0,0.8,0s0.6,0,0.9,0c2.6,0,5-0.3,7.1-1s3.9-1.7,5.4-2.9
		c1.5-1.3,2.6-2.8,3.4-4.7c0.8-1.9,1.2-4,1.2-6.4c0-2.3-0.4-4.3-1.1-6.1c-0.8-1.8-1.9-3.3-3.3-4.5c-1.5-1.2-3.3-2.1-5.4-2.8
		s-4.6-1-7.3-1c-0.3,0-0.6,0-0.8,0s-0.5,0-0.8,0V55.8z"/>
	<path class="st0" d="M761.8,66.3h-12.6V46.1h-16.7v20.2H720V15.9h12.6v19.7h16.7V15.9h12.6V66.3z"/>
	<path class="st0" d="M800.3,15.9c3.2,8.3,6.1,16.7,8.6,25.2c2.5,8.5,4.5,16.9,6.1,25.2H802c-0.3-1.5-0.5-3-0.8-4.5
		c-0.3-1.5-0.6-3-0.9-4.5h-16.1c-0.3,1.5-0.6,3-0.9,4.5c-0.3,1.5-0.6,3-0.8,4.4h-12.6c1.5-8.3,3.6-16.7,6.1-25.2
		c2.5-8.5,5.4-16.9,8.6-25.2H800.3z M798,47.4c-0.8-3.2-1.7-6.4-2.7-9.5c-1-3.1-2-6.2-3.1-9.3c-1.1,3-2.1,6.1-3.1,9.3
		s-1.9,6.3-2.7,9.5H798z"/>
	<path class="st0" d="M823,15.9c2-0.1,4-0.2,6-0.3c2-0.1,3.9-0.1,5.7-0.1c4.1,0,7.8,0.4,11,1.2s5.9,1.9,8.1,3.4
		c2.2,1.5,3.9,3.2,5,5.3s1.7,4.4,1.7,7.1c0,1.5-0.2,3-0.6,4.3c-0.4,1.3-0.9,2.6-1.7,3.7c-0.7,1.1-1.6,2.2-2.7,3.1
		c-1.1,1-2.3,1.8-3.7,2.5c1.7,3,3.3,6.2,5,9.5c1.6,3.4,3.3,6.9,4.8,10.6H848c-1.1-2.7-2.4-5.4-3.8-8.2c-1.4-2.8-2.8-5.5-4.4-8.3
		c-0.7,0.1-1.4,0.2-2.1,0.2c-0.7,0-1.5,0.1-2.3,0.1v16.2H823V15.9z M835.5,40.3c0.3,0,0.5,0,0.8,0s0.5,0,0.8,0
		c1.7,0,3.2-0.2,4.5-0.5s2.4-0.8,3.3-1.5c0.9-0.6,1.5-1.4,2-2.3c0.5-0.9,0.7-1.9,0.7-3.1c0-1.1-0.2-2.1-0.7-3
		c-0.5-0.9-1.1-1.6-2-2.2c-0.9-0.6-2-1.1-3.3-1.4c-1.3-0.3-2.8-0.5-4.5-0.5c-0.3,0-0.5,0-0.7,0c-0.2,0-0.5,0-0.7,0V40.3z"/>
	<path class="st0" d="M870.3,15.9c2-0.1,4-0.2,6-0.3c2-0.1,3.9-0.1,5.7-0.1c4.1,0,7.8,0.4,11,1.2s5.9,1.9,8.1,3.4
		c2.2,1.5,3.9,3.2,5,5.3s1.7,4.4,1.7,7.1c0,1.5-0.2,3-0.6,4.3c-0.4,1.3-0.9,2.6-1.7,3.7c-0.7,1.1-1.6,2.2-2.7,3.1
		c-1.1,1-2.3,1.8-3.7,2.5c1.7,3,3.3,6.2,5,9.5c1.6,3.4,3.3,6.9,4.8,10.6h-13.8c-1.1-2.7-2.4-5.4-3.8-8.2c-1.4-2.8-2.8-5.5-4.4-8.3
		c-0.7,0.1-1.4,0.2-2.1,0.2c-0.7,0-1.5,0.1-2.3,0.1v16.2h-12.6V15.9z M882.8,40.3c0.3,0,0.5,0,0.8,0s0.5,0,0.8,0
		c1.7,0,3.2-0.2,4.5-0.5s2.4-0.8,3.3-1.5c0.9-0.6,1.5-1.4,2-2.3c0.5-0.9,0.7-1.9,0.7-3.1c0-1.1-0.2-2.1-0.7-3
		c-0.5-0.9-1.1-1.6-2-2.2c-0.9-0.6-2-1.1-3.3-1.4c-1.3-0.3-2.8-0.5-4.5-0.5c-0.3,0-0.5,0-0.7,0c-0.2,0-0.5,0-0.7,0V40.3z"/>
	<path class="st0" d="M930.1,66.3h-12.6V15.9h12.6V66.3z"/>
	<path class="st0" d="M943.3,53c1.9,1.2,3.8,2.1,5.8,2.8c2,0.7,4,1,6,1c1,0,1.9-0.1,2.7-0.3c0.8-0.2,1.4-0.5,2-0.8
		c0.5-0.4,0.9-0.8,1.2-1.3c0.3-0.5,0.4-1.1,0.4-1.8c0-0.9-0.3-1.7-0.9-2.4c-0.6-0.7-1.4-1.3-2.4-1.9c-1-0.6-2.1-1.2-3.4-1.7
		c-1.3-0.6-2.6-1.2-3.9-1.8c-1.3-0.6-2.6-1.4-3.9-2.2c-1.3-0.8-2.4-1.8-3.4-2.9c-1-1.1-1.8-2.4-2.4-4c-0.6-1.5-0.9-3.3-0.9-5.3
		c0-2.3,0.4-4.4,1.3-6.3c0.9-1.9,2.1-3.5,3.6-4.8c1.6-1.3,3.4-2.3,5.6-3s4.7-1,7.4-1c2.7,0,5.1,0.3,7.3,0.9c2.2,0.6,4.2,1.5,6.2,2.6
		l-2.8,9.9c-1.7-1-3.4-1.7-5.1-2.3c-1.7-0.6-3.5-0.8-5.3-0.8c-0.8,0-1.6,0.1-2.3,0.3s-1.3,0.4-1.8,0.8c-0.5,0.3-0.9,0.7-1.1,1.2
		c-0.3,0.5-0.4,1-0.4,1.7c0,0.9,0.3,1.6,0.9,2.3c0.6,0.7,1.4,1.3,2.4,1.8s2.1,1.1,3.4,1.7c1.3,0.5,2.6,1.1,3.9,1.8s2.6,1.4,3.9,2.2
		c1.3,0.8,2.4,1.8,3.4,3c1,1.2,1.8,2.5,2.4,4c0.6,1.5,0.9,3.3,0.9,5.4c0,2.4-0.5,4.5-1.4,6.4s-2.2,3.5-3.8,4.9
		c-1.6,1.3-3.6,2.4-5.9,3.1c-2.3,0.7-4.8,1.1-7.5,1.1c-3,0-5.7-0.4-8.1-1.1c-2.4-0.7-4.6-1.7-6.6-3.1L943.3,53z"/>
</g>
</svg>
